solid ASCII
  facet normal -1.740394e-16 1.000000e+00 8.512798e-17
    outer loop
      vertex   -3.903318e+01 2.800000e+01 2.510995e+01
      vertex   6.303318e+01 2.800000e+01 2.510995e+01
      vertex   -3.947826e+01 2.800000e+01 2.420000e+01
    endloop
  endfacet
  facet normal -1.725347e-16 1.000000e+00 -8.439195e-17
    outer loop
      vertex   -3.947826e+01 2.800000e+01 2.420000e+01
      vertex   6.303318e+01 2.800000e+01 2.510995e+01
      vertex   6.347826e+01 2.800000e+01 2.420000e+01
    endloop
  endfacet
  facet normal -1.380277e-16 -1.000000e+00 6.751356e-17
    outer loop
      vertex   -3.947826e+01 -6.820000e+01 2.420000e+01
      vertex   6.347826e+01 -6.820000e+01 2.420000e+01
      vertex   -3.903318e+01 -6.820000e+01 2.510995e+01
    endloop
  endfacet
  facet normal -1.392315e-16 -1.000000e+00 -6.810238e-17
    outer loop
      vertex   -3.903318e+01 -6.820000e+01 2.510995e+01
      vertex   6.347826e+01 -6.820000e+01 2.420000e+01
      vertex   6.303318e+01 -6.820000e+01 2.510995e+01
    endloop
  endfacet
  facet normal 0.000000e+00 0.000000e+00 -1.000000e+00
    outer loop
      vertex   -3.947826e+01 2.800000e+01 2.420000e+01
      vertex   6.347826e+01 2.800000e+01 2.420000e+01
      vertex   -3.947826e+01 -6.820000e+01 2.420000e+01
    endloop
  endfacet
  facet normal 0.000000e+00 0.000000e+00 -1.000000e+00
    outer loop
      vertex   -3.947826e+01 -6.820000e+01 2.420000e+01
      vertex   6.347826e+01 2.800000e+01 2.420000e+01
      vertex   6.347826e+01 -6.820000e+01 2.420000e+01
    endloop
  endfacet
  facet normal 8.982987e-01 8.938287e-16 -4.393852e-01
    outer loop
      vertex   -3.903318e+01 2.800000e+01 2.510995e+01
      vertex   -3.947826e+01 2.800000e+01 2.420000e+01
      vertex   -6.100000e+01 1.104000e+02 -1.980000e+01
    endloop
  endfacet
  facet normal 8.982987e-01 0.000000e+00 -4.393852e-01
    outer loop
      vertex   -6.100000e+01 1.104000e+02 -1.980000e+01
      vertex   -3.947826e+01 2.800000e+01 2.420000e+01
      vertex   -6.100000e+01 -1.506000e+02 -1.980000e+01
    endloop
  endfacet
  facet normal 8.982987e-01 0.000000e+00 -4.393852e-01
    outer loop
      vertex   -6.100000e+01 -1.506000e+02 -1.980000e+01
      vertex   -3.947826e+01 2.800000e+01 2.420000e+01
      vertex   -3.947826e+01 -6.820000e+01 2.420000e+01
    endloop
  endfacet
  facet normal 8.982987e-01 0.000000e+00 -4.393852e-01
    outer loop
      vertex   -6.100000e+01 -1.506000e+02 -1.980000e+01
      vertex   -3.947826e+01 -6.820000e+01 2.420000e+01
      vertex   -3.903318e+01 -6.820000e+01 2.510995e+01
    endloop
  endfacet
  facet normal -2.505894e-17 4.785605e-01 -8.780546e-01
    outer loop
      vertex   -3.903318e+01 -6.820000e+01 2.510995e+01
      vertex   6.303318e+01 -6.820000e+01 2.510995e+01
      vertex   -6.100000e+01 -1.506000e+02 -1.980000e+01
    endloop
  endfacet
  facet normal 0.000000e+00 4.785605e-01 -8.780546e-01
    outer loop
      vertex   -6.100000e+01 -1.506000e+02 -1.980000e+01
      vertex   6.303318e+01 -6.820000e+01 2.510995e+01
      vertex   8.500000e+01 -1.506000e+02 -1.980000e+01
    endloop
  endfacet
  facet normal -8.096136e-17 4.785605e-01 8.780546e-01
    outer loop
      vertex   -4.050000e+01 2.800000e+01 2.620000e+01
      vertex   6.450000e+01 2.800000e+01 2.620000e+01
      vertex   -6.300000e+01 1.124000e+02 -1.980000e+01
    endloop
  endfacet
  facet normal -0.000000e+00 4.785605e-01 8.780546e-01
    outer loop
      vertex   -6.300000e+01 1.124000e+02 -1.980000e+01
      vertex   6.450000e+01 2.800000e+01 2.620000e+01
      vertex   8.700000e+01 1.124000e+02 -1.980000e+01
    endloop
  endfacet
  facet normal -8.401265e-18 -4.785605e-01 -8.780546e-01
    outer loop
      vertex   6.303318e+01 2.800000e+01 2.510995e+01
      vertex   -3.903318e+01 2.800000e+01 2.510995e+01
      vertex   8.500000e+01 1.104000e+02 -1.980000e+01
    endloop
  endfacet
  facet normal -0.000000e+00 -4.785605e-01 -8.780546e-01
    outer loop
      vertex   8.500000e+01 1.104000e+02 -1.980000e+01
      vertex   -3.903318e+01 2.800000e+01 2.510995e+01
      vertex   -6.100000e+01 1.104000e+02 -1.980000e+01
    endloop
  endfacet
  facet normal 0.000000e+00 0.000000e+00 -1.000000e+00
    outer loop
      vertex   8.700000e+01 -1.526000e+02 -1.980000e+01
      vertex   8.500000e+01 1.104000e+02 -1.980000e+01
      vertex   8.700000e+01 1.124000e+02 -1.980000e+01
    endloop
  endfacet
  facet normal 0.000000e+00 0.000000e+00 -1.000000e+00
    outer loop
      vertex   8.700000e+01 1.124000e+02 -1.980000e+01
      vertex   8.500000e+01 1.104000e+02 -1.980000e+01
      vertex   -6.100000e+01 1.104000e+02 -1.980000e+01
    endloop
  endfacet
  facet normal -0.000000e+00 0.000000e+00 -1.000000e+00
    outer loop
      vertex   8.700000e+01 1.124000e+02 -1.980000e+01
      vertex   -6.100000e+01 1.104000e+02 -1.980000e+01
      vertex   -6.300000e+01 1.124000e+02 -1.980000e+01
    endloop
  endfacet
  facet normal 0.000000e+00 0.000000e+00 -1.000000e+00
    outer loop
      vertex   -6.300000e+01 1.124000e+02 -1.980000e+01
      vertex   -6.100000e+01 1.104000e+02 -1.980000e+01
      vertex   -6.300000e+01 -1.526000e+02 -1.980000e+01
    endloop
  endfacet
  facet normal 0.000000e+00 0.000000e+00 -1.000000e+00
    outer loop
      vertex   -6.300000e+01 -1.526000e+02 -1.980000e+01
      vertex   -6.100000e+01 1.104000e+02 -1.980000e+01
      vertex   -6.100000e+01 -1.506000e+02 -1.980000e+01
    endloop
  endfacet
  facet normal 0.000000e+00 0.000000e+00 -1.000000e+00
    outer loop
      vertex   -6.300000e+01 -1.526000e+02 -1.980000e+01
      vertex   -6.100000e+01 -1.506000e+02 -1.980000e+01
      vertex   8.500000e+01 -1.506000e+02 -1.980000e+01
    endloop
  endfacet
  facet normal 0.000000e+00 0.000000e+00 -1.000000e+00
    outer loop
      vertex   8.500000e+01 1.104000e+02 -1.980000e+01
      vertex   8.700000e+01 -1.526000e+02 -1.980000e+01
      vertex   8.500000e+01 -1.506000e+02 -1.980000e+01
    endloop
  endfacet
  facet normal 0.000000e+00 -0.000000e+00 -1.000000e+00
    outer loop
      vertex   8.500000e+01 -1.506000e+02 -1.980000e+01
      vertex   8.700000e+01 -1.526000e+02 -1.980000e+01
      vertex   -6.300000e+01 -1.526000e+02 -1.980000e+01
    endloop
  endfacet
  facet normal 0.000000e+00 0.000000e+00 1.000000e+00
    outer loop
      vertex   6.450000e+01 2.800000e+01 2.620000e+01
      vertex   -4.050000e+01 2.800000e+01 2.620000e+01
      vertex   6.450000e+01 -6.820000e+01 2.620000e+01
    endloop
  endfacet
  facet normal 0.000000e+00 0.000000e+00 1.000000e+00
    outer loop
      vertex   6.450000e+01 -6.820000e+01 2.620000e+01
      vertex   -4.050000e+01 2.800000e+01 2.620000e+01
      vertex   -4.050000e+01 -6.820000e+01 2.620000e+01
    endloop
  endfacet
  facet normal -8.982987e-01 0.000000e+00 4.393852e-01
    outer loop
      vertex   -4.050000e+01 -6.820000e+01 2.620000e+01
      vertex   -4.050000e+01 2.800000e+01 2.620000e+01
      vertex   -6.300000e+01 -1.526000e+02 -1.980000e+01
    endloop
  endfacet
  facet normal -8.982987e-01 0.000000e+00 4.393852e-01
    outer loop
      vertex   -6.300000e+01 -1.526000e+02 -1.980000e+01
      vertex   -4.050000e+01 2.800000e+01 2.620000e+01
      vertex   -6.300000e+01 1.124000e+02 -1.980000e+01
    endloop
  endfacet
  facet normal -6.476909e-17 -4.785605e-01 8.780546e-01
    outer loop
      vertex   6.450000e+01 -6.820000e+01 2.620000e+01
      vertex   -4.050000e+01 -6.820000e+01 2.620000e+01
      vertex   8.700000e+01 -1.526000e+02 -1.980000e+01
    endloop
  endfacet
  facet normal 0.000000e+00 -4.785605e-01 8.780546e-01
    outer loop
      vertex   8.700000e+01 -1.526000e+02 -1.980000e+01
      vertex   -4.050000e+01 -6.820000e+01 2.620000e+01
      vertex   -6.300000e+01 -1.526000e+02 -1.980000e+01
    endloop
  endfacet
  facet normal 8.982987e-01 -0.000000e+00 4.393852e-01
    outer loop
      vertex   6.450000e+01 -6.820000e+01 2.620000e+01
      vertex   8.700000e+01 -1.526000e+02 -1.980000e+01
      vertex   6.450000e+01 2.800000e+01 2.620000e+01
    endloop
  endfacet
  facet normal 8.982987e-01 0.000000e+00 4.393852e-01
    outer loop
      vertex   6.450000e+01 2.800000e+01 2.620000e+01
      vertex   8.700000e+01 -1.526000e+02 -1.980000e+01
      vertex   8.700000e+01 1.124000e+02 -1.980000e+01
    endloop
  endfacet
  facet normal -8.982987e-01 -2.596360e-15 -4.393852e-01
    outer loop
      vertex   6.303318e+01 2.800000e+01 2.510995e+01
      vertex   8.500000e+01 1.104000e+02 -1.980000e+01
      vertex   6.347826e+01 2.800000e+01 2.420000e+01
    endloop
  endfacet
  facet normal -8.982987e-01 0.000000e+00 -4.393852e-01
    outer loop
      vertex   6.347826e+01 2.800000e+01 2.420000e+01
      vertex   8.500000e+01 1.104000e+02 -1.980000e+01
      vertex   8.500000e+01 -1.506000e+02 -1.980000e+01
    endloop
  endfacet
  facet normal -8.982987e-01 -0.000000e+00 -4.393852e-01
    outer loop
      vertex   6.347826e+01 2.800000e+01 2.420000e+01
      vertex   8.500000e+01 -1.506000e+02 -1.980000e+01
      vertex   6.347826e+01 -6.820000e+01 2.420000e+01
    endloop
  endfacet
  facet normal -8.982987e-01 2.596360e-15 -4.393852e-01
    outer loop
      vertex   6.347826e+01 -6.820000e+01 2.420000e+01
      vertex   8.500000e+01 -1.506000e+02 -1.980000e+01
      vertex   6.303318e+01 -6.820000e+01 2.510995e+01
    endloop
  endfacet
endsolid
